<svg xmlns="http://www.w3.org/2000/svg" width="25.265" height="23.304" viewBox="0 0 25.265 23.304">
  <g id="icon" transform="translate(0 -1.178)">
    <path id="Path_38" data-name="Path 38" d="M18.788,10.6s1.022-.777.244-1.554-1.534.226-1.534.226L9.68,17.091s-1.831,2.363-3.224.934S7.39,14.8,7.39,14.8L17.642,4.55s2.392-2.636,4.642-.388-.4,4.646-.4,4.646L10.367,20.327s-3.686,4.258-7.1.845.888-7.057.888-7.057L12.9,5.367s.979-.818.246-1.554-1.553.246-1.553.246L1.56,14.095A5.934,5.934,0,0,0,2,22.479a5.938,5.938,0,0,0,8.387.444L24.182,9.128a4.463,4.463,0,0,0-.53-6.335,4.462,4.462,0,0,0-6.335-.532L5.449,14.127s-3.04,2.472-.281,5.229,5.185-.325,5.185-.325Z" transform="translate(0 0)" fill="#a0a0a0"/>
  </g>
</svg>
