<?xml version="1.0" encoding="utf-8"?>
<!-- Generator: Adobe Illustrator 22.1.0, SVG Export Plug-In . SVG Version: 6.00 Build 0)  -->
<svg xmlns="http://www.w3.org/2000/svg" xmlns:xlink="http://www.w3.org/1999/xlink" version="1.1" id="Layer_1" x="0px" y="0px" viewBox="0 0 512 512" style="enable-background:new 0 0 512 512;" xml:space="preserve" width="512" height="512">
<style type="text/css">
	.st0{fill:#DB9C2E;}
	.st1{fill:#BF6C0D;}
	.st2{fill:#F9BB32;}
	.st3{fill:#FCE575;}
	.st4{fill:#FFD551;}
	.st5{fill:#FFC34C;}
	.st6{fill:#FFDF74;}
	.st7{fill:#FFA730;}
	.st8{fill:#FFF4C1;}
	.st9{fill:#FFEACF;}
	.st10{fill:#FF624B;}
	.st11{fill:#CCC033;}
	.st12{fill:#8C4C17;}
	.st13{fill:#FFD59A;}
	.st14{fill:#99AF17;}
	.st15{fill:#FCF9DE;}
	.st16{fill:#E58D23;}
	.st17{fill:#A56021;}
	.st18{fill:#FF4B34;}
	.st19{fill:#FF9079;}
	.st20{fill:#EACF32;}
	.st21{fill:#FFB74B;}
	.st22{fill:#FCDA4F;}
	.st23{fill:#FFEA63;}
</style>
<g>
	<g>
		<path class="st4" d="M231.86,122.148c-93.912,0-170.043,76.131-170.043,170.043c0,55.448,26.544,104.69,67.613,135.732    c-10.485,13.282-26.034,24.663-49.093,29.763c-8.15,1.802-9.201,13.016-1.451,16.118c29.023,11.617,78.407,21.688,126.382-13.644    c8.665,1.361,17.545,2.075,26.592,2.075c93.912,0,170.043-76.131,170.043-170.043S325.772,122.148,231.86,122.148z"/>
	</g>
	<g>
		<path class="st7" d="M300.146,342.173c-2.417,8.602-8.804,17.275-8.804,17.275c-25.181,31.444-59.572,26.589-59.572,26.589    c-49.274-0.748-64.019-31.892-67.837-43.662c-0.711-2.193,0.908-4.442,3.214-4.442h129.727    C299.09,337.933,300.746,340.039,300.146,342.173z"/>
	</g>
	<g>
		<path class="st5" d="M117.791,482.26c-7.749-3.102-6.699-14.316,1.451-16.118c23.059-5.099,38.607-16.48,49.093-29.763    c-41.069-31.041-67.613-80.284-67.613-135.732c0-93.912,76.131-170.043,170.043-170.043c5.589,0,11.113,0.278,16.564,0.805    c-17.386-5.997-36.045-9.263-55.469-9.263c-93.912,0-170.043,76.131-170.043,170.043c0,55.448,26.544,104.69,67.613,135.732    c-10.485,13.282-26.034,24.663-49.093,29.763c-8.15,1.802-9.201,13.016-1.451,16.118c11.836,4.737,27.058,9.216,44.189,10.465    C121.249,483.61,119.484,482.938,117.791,482.26z"/>
	</g>
	<g>
		<path class="st17" d="M104.193,284.087c-0.325,0-0.651-0.016-0.981-0.048c-5.497-0.536-9.519-5.426-8.983-10.923    c0.833-8.541,6.872-17.118,8.075-18.75c0.08-0.109,0.162-0.216,0.246-0.321c17.887-22.334,41.932-21.234,46.614-20.782    c37.014,0.771,51.161,25.879,53.47,39.103l-19.701,3.441l0.021,0.113c-0.454-2.273-5.278-22.223-34.564-22.668    c-0.471-0.007-0.75-0.019-1.202-0.09c-1.236-0.136-16.947-1.53-28.882,13.206c-1.833,2.563-3.978,6.712-4.17,8.689    C113.631,280.223,109.279,284.086,104.193,284.087z"/>
	</g>
	<g>
		<path class="st17" d="M276.894,284.087c-0.325,0-0.651-0.016-0.981-0.048c-5.497-0.536-9.519-5.426-8.983-10.923    c0.833-8.541,6.872-17.118,8.075-18.75c0.08-0.109,0.162-0.216,0.246-0.321c17.886-22.334,41.932-21.234,46.614-20.782    c37.014,0.771,51.16,25.88,53.469,39.103l-19.701,3.44l0.021,0.113c-0.454-2.273-5.277-22.223-34.563-22.668    c-0.471-0.007-0.75-0.019-1.202-0.09c-1.238-0.136-16.948-1.529-28.882,13.206c-1.833,2.563-3.978,6.712-4.17,8.688    C286.331,280.223,281.979,284.086,276.894,284.087z"/>
	</g>
	<g>
		<path class="st3" d="M358.649,217.376c-2.316,0-4.523-1.349-5.506-3.61c-17.84-41.047-69.747-59.008-70.27-59.185    c-3.137-1.061-4.823-4.464-3.765-7.602c1.059-3.138,4.454-4.826,7.596-3.77c2.336,0.786,57.452,19.776,77.444,65.774    c1.32,3.039-0.072,6.573-3.111,7.894C360.26,217.215,359.447,217.376,358.649,217.376z"/>
	</g>
	<g>
		<circle class="st5" cx="227.561" cy="164.678" r="13.376"/>
	</g>
	<g>
		<path class="st6" d="M331.923,128.549L331.923,128.549c-7.14-4.422-9.343-13.795-4.921-20.935l33.818-54.6    c4.422-7.14,13.795-9.343,20.935-4.921l0,0c7.14,4.422,9.343,13.795,4.921,20.935l-33.818,54.6    C348.436,130.768,339.063,132.971,331.923,128.549z"/>
	</g>
	<g>
		<path class="st6" d="M372.648,168.581L372.648,168.581c-1.922-8.176,3.148-16.361,11.324-18.283l62.521-14.695    c8.176-1.922,16.361,3.148,18.283,11.324v0c1.922,8.176-3.148,16.361-11.324,18.283l-62.521,14.695    C382.755,181.826,374.57,176.756,372.648,168.581z"/>
	</g>
	<g>
		<path class="st6" d="M277.941,109.922L277.941,109.922c-8.176,1.922-16.361-3.148-18.283-11.324l-14.695-62.521    c-1.922-8.176,3.148-16.361,11.324-18.283l0,0c8.176-1.922,16.361,3.148,18.283,11.324l14.695,62.521    C291.187,99.815,286.117,108,277.941,109.922z"/>
	</g>
</g>
</svg>
