<svg xmlns="http://www.w3.org/2000/svg" width="59.997" height="60" viewBox="0 0 59.997 60">
  <g id="rocket" transform="translate(-0.014 0)">
    <path id="Path_109" data-name="Path 109" d="M53.683,340.642a6.793,6.793,0,0,1,0,9.566c-2.626,2.626-10.363,6.049-12.989,3.423s.8-10.363,3.423-12.989A6.792,6.792,0,0,1,53.683,340.642Z" transform="translate(-35.006 -298.35)" fill="#efc75e"/>
    <path id="Path_110" data-name="Path 110" d="M90.99,339.311v.281a8.886,8.886,0,0,0,8.862,8.862h.188a6.778,6.778,0,0,0-9.05-9.144Z" transform="translate(-80.144 -298.285)" fill="#deb957"/>
    <path id="Path_111" data-name="Path 111" d="M32.463,180.186c8.018,8.018,9.613,19.413,2.016,27.009l-3.611,3.611c-7.6,7.6-2.345-10.644-10.363-18.663S-5.8,189.423,1.843,181.78l3.611-3.611c7.6-7.6,18.991-6,27.01,2.016Z" transform="translate(0 -152.618)" fill="#ffdc60"/>
    <path id="Path_112" data-name="Path 112" d="M138.862,1.027c2.438,2.438,1.36,17.912-13.6,32.918-9.753,9.707-15.9,13.13-15.9,13.13-6.518,4.408-9.66,1.407-13.786-2.72s-7.174-7.268-2.72-13.786c0,0,3.47-6.19,13.176-15.943C121-.332,136.423-1.458,138.862,1.027Z" transform="translate(-79.858)" fill="#f4f0d3"/>
    <path id="Path_113" data-name="Path 113" d="M111.946,242.351c-6.8,4.548-10.082,1.454-14.349-2.814-4.314-4.314-7.456-7.549-2.813-14.349l.7-1.125a44.218,44.218,0,0,0-2.626,3.892c-4.455,6.518-1.407,9.66,2.72,13.786s7.268,7.081,13.786,2.72a61.263,61.263,0,0,0,7.925-5.815A50.954,50.954,0,0,1,111.946,242.351Z" transform="translate(-79.858 -197.386)" fill="#e8e4c8"/>
    <path id="Path_114" data-name="Path 114" d="M289.37,127.817a5.869,5.869,0,1,1-8.3,0A5.859,5.859,0,0,1,289.37,127.817Z" transform="translate(-246.075 -111.081)" fill="#8ba0ab"/>
    <path id="Path_115" data-name="Path 115" d="M119.982,260.283c1.172,1.172-1.078,5.346-6.8,11.066s-9.191,7.268-10.363,6.049c-1.172-1.172.328-4.642,6.049-10.363C114.636,261.315,118.762,259.064,119.982,260.283Z" transform="translate(-90.238 -229.011)" fill="#ffdc60"/>
    <path id="Path_116" data-name="Path 116" d="M285.591,127.4a4.483,4.483,0,1,1-3.142,1.313,4.438,4.438,0,0,1,3.142-1.313m0-1.407a5.676,5.676,0,0,0-4.126,1.735,5.885,5.885,0,0,0,4.126,10.035,5.676,5.676,0,0,0,4.126-1.735,5.859,5.859,0,0,0,0-8.3A5.676,5.676,0,0,0,285.591,126Z" transform="translate(-246.423 -110.995)" fill="#324d5b"/>
  </g>
</svg>
