<svg xmlns="http://www.w3.org/2000/svg" width="50" height="60" viewBox="0 0 50 60">
  <g id="hourglass" transform="translate(-5)">
    <path id="Path_105" data-name="Path 105" d="M41.857,22.1A7.063,7.063,0,0,0,45,16.222V5H15V16.222A7.063,7.063,0,0,0,18.143,22.1l9.319,6.843A1.316,1.316,0,0,1,28,30h0a1.318,1.318,0,0,1-.537,1.061L18.144,37.9A7.061,7.061,0,0,0,15,43.778V55H45V43.778A7.063,7.063,0,0,0,41.857,37.9l-9.319-6.843A1.316,1.316,0,0,1,32,30h0a1.318,1.318,0,0,1,.537-1.061Z" fill="#e6e6e6"/>
    <rect id="Rectangle_238" data-name="Rectangle 238" width="40" height="4" transform="translate(10 55)" fill="#9e6c53"/>
    <rect id="Rectangle_239" data-name="Rectangle 239" width="40" height="4" transform="translate(10 1)" fill="#9e6c53"/>
    <g id="Group_161" data-name="Group 161">
      <path id="Path_106" data-name="Path 106" d="M54,58H6a1,1,0,0,0,0,2H54a1,1,0,0,0,0-2Z" fill="#8a5336"/>
      <path id="Path_107" data-name="Path 107" d="M6,2H54a1,1,0,0,0,0-2H6A1,1,0,0,0,6,2Z" fill="#8a5336"/>
    </g>
    <path id="Path_108" data-name="Path 108" d="M40.192,19.6A4.053,4.053,0,0,0,42,16.223h0a2.847,2.847,0,0,0-2.156-2.762L24.791,9.7A5.465,5.465,0,0,0,18,15v1.223A4.053,4.053,0,0,0,19.808,19.6L29,26.346V42.223a4.97,4.97,0,0,1-7.058,4.511h0A2.752,2.752,0,0,0,18,49.083V55H42V43.736a3.193,3.193,0,0,0-3.791-2.991l-2.049.357A4.405,4.405,0,0,1,31,36.763V26.346Z" fill="#ffdc60"/>
  </g>
</svg>
