<svg xmlns="http://www.w3.org/2000/svg" width="11.18" height="18" viewBox="0 0 11.18 18">
  <g id="lightning" transform="translate(-96.984 0)">
    <path id="Path_1" data-name="Path 1" d="M101.17,17.906l6.942-11.955a.376.376,0,0,0-.376-.562l-4.618.628,1.1-5.793a.188.188,0,0,0-.335-.149L97.062,9.087a.376.376,0,0,0,.339.6l5.091-.536-1.669,8.624A.188.188,0,0,0,101.17,17.906Z" transform="translate(0 0)" fill="#ffdc60"/>
    <path id="Path_2" data-name="Path 2" d="M99.2,8.464a.156.156,0,0,1-.144-.238l5.1-8.166a.185.185,0,0,0-.268.032L97.062,9.1a.376.376,0,0,0,.339.6l5.092-.536-1.669,8.624a.183.183,0,0,0,.148.218l2.86-9.051a.627.627,0,0,0-.648-.814Z" transform="translate(0 -0.016)" fill="#ffc840"/>
  </g>
</svg>
