<svg id="verified" xmlns="http://www.w3.org/2000/svg" width="80" height="80" viewBox="0 0 80 80">
  <g id="Group_126" data-name="Group 126">
    <g id="Group_125" data-name="Group 125">
      <path id="Path_79" data-name="Path 79" d="M68.284,11.716A40,40,0,0,0,11.716,68.284,40,40,0,1,0,68.284,11.716ZM40,75.313A35.313,35.313,0,1,1,75.313,40,35.352,35.352,0,0,1,40,75.313Z" fill="#fff"/>
    </g>
  </g>
  <g id="Group_128" data-name="Group 128" transform="translate(20.203 26.479)">
    <g id="Group_127" data-name="Group 127">
      <path id="Path_80" data-name="Path 80" d="M168.207,170.153a2.344,2.344,0,0,0-3.314,0l-20.7,20.7L133.3,179.955a2.344,2.344,0,0,0-3.315,3.315l12.552,12.552a2.344,2.344,0,0,0,3.314,0l22.354-22.354A2.344,2.344,0,0,0,168.207,170.153Z" transform="translate(-129.301 -169.467)" fill="#fff"/>
    </g>
  </g>
</svg>
